<?xml version="1.0" encoding="utf-8"?>
<!-- Generated by Mocodo 4.1.1 -->
<svg width="1648" height="726" viewBox="0 0 1648 726" xmlns="http://www.w3.org/2000/svg">
<rect x="0" y="0" width="1648" height="726" fill="none" stroke="none" stroke-width="0"/>

<!-- Inheritance INSCRIPTION_PARTICIPANT_PARENT_#1 -->
<g>
	<line x1="562" y1="187" x2="342" y2="43" stroke="#000000" stroke-width="2"/>
	<polygon points="523.81 162 510.48 160.45 517.11 157.62 517.05 150.41" fill="#000000" stroke-width="0"/>
	<line x1="111" y1="43" x2="342" y2="43" stroke="#000000" stroke-width="2"/>
	<line x1="111" y1="187" x2="342" y2="43" stroke="#000000" stroke-width="2"/>
	<g>
		<polygon points="342 17.6 320 55.7 364 55.7" stroke="#000000" stroke-width="2" fill="#FFFFFF"/>
		<text x="334" y="48" fill="#000000" font-family="Verdana" font-size="12">XT</text>
	</g>
</g>

<!-- Inheritance INSCRIPTION_PARENT_#2 -->
<g>
	<line x1="982" y1="187" x2="760" y2="187" stroke="#000000" stroke-width="2"/>
	<polygon points="906 187 894 193 898 187 894 181" fill="#000000" stroke-width="0"/>
	<line x1="562" y1="187" x2="760" y2="187" stroke="#000000" stroke-width="2"/>
	<line x1="760" y1="331" x2="760" y2="187" stroke="#000000" stroke-width="2"/>
	<g>
		<polygon points="760 161.6 738 199.7 782 199.7" stroke="#000000" stroke-width="2" fill="#FFFFFF"/>
		<text x="752" y="192" fill="#000000" font-family="Verdana" font-size="12">XT</text>
	</g>
</g>

<!-- Inheritance ENDROIT_PARENT_#3 -->
<g>
	<line x1="760" y1="566" x2="760" y2="675" stroke="#000000" stroke-width="2"/>
	<polygon points="760 591 766 603 760 599 754 603" fill="#000000" stroke-width="0"/>
	<line x1="982" y1="566" x2="760" y2="675" stroke="#000000" stroke-width="2"/>
	<line x1="982" y1="675" x2="760" y2="675" stroke="#000000" stroke-width="2"/>
	<line x1="562" y1="675" x2="760" y2="675" stroke="#000000" stroke-width="2"/>
	<g>
		<polygon points="760 649.6 738 687.7 782 687.7" stroke="#000000" stroke-width="2" fill="#FFFFFF"/>
		<text x="752" y="680" fill="#000000" font-family="Verdana" font-size="12">XT</text>
	</g>
</g>

<!-- Association DETIENT_IDENTIFIANT -->
<g>
	<line x1="760" y1="43" x2="562" y2="43" stroke="#000000" stroke-width="2"/>
	<line x1="562" y1="187" x2="562" y2="43" stroke="#000000" stroke-width="2"/>
	<g>
		<path d="M626 18 a14 14 90 0 1 14 14 V43 h-156 V32 a14 14 90 0 1 14 -14" fill="#FFFFFF" stroke="#FFFFFF" stroke-width="0"/>
		<path d="M640 43 v11 a14 14 90 0 1 -14 14 H498 a14 14 90 0 1 -14 -14 V43 H156" fill="#FFFFFF" stroke="#FFFFFF" stroke-width="0"/>
		<rect x="484" y="18" width="156" height="50" fill="none" rx="14" stroke="#000000" stroke-width="2"/>
		<line x1="484" y1="43" x2="640" y2="43" stroke="#000000" stroke-width="1"/>
		<text x="491" y="35.75" fill="#000000" font-family="Verdana" font-size="12">DETIENT_IDENTIFIANT</text>
	</g>
	<text x="679" y="60" fill="#000000" font-family="Verdana" font-size="12">0,1</text>
	<text x="567" y="154" fill="#000000" font-family="Verdana" font-size="12">0,1</text>
</g>

<!-- Association DF0 -->
<g>
	<line x1="982" y1="187" x2="982" y2="43" stroke="#000000" stroke-width="2"/>
	<line x1="1167" y1="43" x2="982" y2="43" stroke="#000000" stroke-width="2"/>
	<g>
		<circle cx="982" cy="43" r="16" stroke="#000000" stroke-width="2" fill="#FFFFFF"/>
		<text x="973" y="47" fill="#000000" font-family="Verdana" font-size="12">DF</text>
	</g>
	<text x="987" y="94" fill="#000000" font-family="Verdana" font-size="12">0,N</text>
	<text x="1043" y="60" fill="#000000" font-family="Verdana" font-size="12">1,1</text>
</g>

<!-- Association INTOLERANCE_NOURRITURE -->
<g>
	<line x1="1543" y1="187" x2="1543" y2="43" stroke="#000000" stroke-width="2"/>
	<line x1="1354" y1="43" x2="1543" y2="43" stroke="#000000" stroke-width="2"/>
	<g>
		<path d="M1625 18 a14 14 90 0 1 14 14 V43 h-192 V32 a14 14 90 0 1 14 -14" fill="#FFFFFF" stroke="#FFFFFF" stroke-width="0"/>
		<path d="M1639 43 v11 a14 14 90 0 1 -14 14 H1461 a14 14 90 0 1 -14 -14 V43 H192" fill="#FFFFFF" stroke="#FFFFFF" stroke-width="0"/>
		<rect x="1447" y="18" width="192" height="50" fill="none" rx="14" stroke="#000000" stroke-width="2"/>
		<line x1="1447" y1="43" x2="1639" y2="43" stroke="#000000" stroke-width="1"/>
		<text x="1455" y="35.75" fill="#000000" font-family="Verdana" font-size="12">INTOLERANCE_NOURRITURE</text>
	</g>
	<text x="1548" y="137" fill="#000000" font-family="Verdana" font-size="12">0,N</text>
	<text x="1416" y="60" fill="#000000" font-family="Verdana" font-size="12">0,N</text>
</g>

<!-- Association PARTICIPATION_EVENEMENT -->
<g>
	<line x1="562" y1="187" x2="342" y2="187" stroke="#000000" stroke-width="2"/>
	<line x1="342" y1="331" x2="342" y2="187" stroke="#000000" stroke-width="2"/>
	<g>
		<path d="M425 162 a14 14 90 0 1 14 14 V187 h-194 V176 a14 14 90 0 1 14 -14" fill="#FFFFFF" stroke="#FFFFFF" stroke-width="0"/>
		<path d="M439 187 v11 a14 14 90 0 1 -14 14 H259 a14 14 90 0 1 -14 -14 V187 H194" fill="#FFFFFF" stroke="#FFFFFF" stroke-width="0"/>
		<rect x="245" y="162" width="194" height="50" fill="none" rx="14" stroke="#000000" stroke-width="2"/>
		<line x1="245" y1="187" x2="439" y2="187" stroke="#000000" stroke-width="1"/>
		<text x="253" y="179.75" fill="#000000" font-family="Verdana" font-size="12">PARTICIPATION_EVENEMENT</text>
	</g>
	<text x="444" y="204" fill="#000000" font-family="Verdana" font-size="12">1,N</text>
	<text x="347" y="238" fill="#000000" font-family="Verdana" font-size="12">1,N</text>
</g>

<!-- Association PARTICIPATION_INTOLERANCE -->
<g>
	<line x1="982" y1="187" x2="1354" y2="187" stroke="#000000" stroke-width="2"/>
	<line x1="1354" y1="43" x2="1354" y2="187" stroke="#000000" stroke-width="2"/>
	<g>
		<path d="M1443 162 a14 14 90 0 1 14 14 V187 h-206 V176 a14 14 90 0 1 14 -14" fill="#FFFFFF" stroke="#FFFFFF" stroke-width="0"/>
		<path d="M1457 187 v11 a14 14 90 0 1 -14 14 H1265 a14 14 90 0 1 -14 -14 V187 H206" fill="#FFFFFF" stroke="#FFFFFF" stroke-width="0"/>
		<rect x="1251" y="162" width="206" height="50" fill="none" rx="14" stroke="#000000" stroke-width="2"/>
		<line x1="1251" y1="187" x2="1457" y2="187" stroke="#000000" stroke-width="1"/>
		<text x="1259" y="179.75" fill="#000000" font-family="Verdana" font-size="12">PARTICIPATION_INTOLERANCE</text>
	</g>
	<text x="1063" y="204" fill="#000000" font-family="Verdana" font-size="12">0,N</text>
	<text x="1359" y="85" fill="#000000" font-family="Verdana" font-size="12">0,N</text>
</g>

<!-- Association THEME_EVENEMENT -->
<g>
	<line x1="342" y1="331" x2="111" y2="331" stroke="#000000" stroke-width="2"/>
	<line x1="111" y1="457" x2="111" y2="331" stroke="#000000" stroke-width="2"/>
	<g>
		<path d="M166 306 a14 14 90 0 1 14 14 V331 h-138 V320 a14 14 90 0 1 14 -14" fill="#FFFFFF" stroke="#FFFFFF" stroke-width="0"/>
		<path d="M180 331 v11 a14 14 90 0 1 -14 14 H56 a14 14 90 0 1 -14 -14 V331 H138" fill="#FFFFFF" stroke="#FFFFFF" stroke-width="0"/>
		<rect x="42" y="306" width="138" height="50" fill="none" rx="14" stroke="#000000" stroke-width="2"/>
		<line x1="42" y1="331" x2="180" y2="331" stroke="#000000" stroke-width="1"/>
		<text x="49" y="323.75" fill="#000000" font-family="Verdana" font-size="12">THEME_EVENEMENT</text>
	</g>
	<text x="218" y="348" fill="#000000" font-family="Verdana" font-size="12">1,N</text>
	<text x="116" y="415" fill="#000000" font-family="Verdana" font-size="12">1,N</text>
</g>

<!-- Association ACTIVITE_SOCIALE -->
<g>
	<line x1="562" y1="187" x2="562" y2="331" stroke="#000000" stroke-width="2"/>
	<line x1="562" y1="457" x2="562" y2="331" stroke="#000000" stroke-width="2"/>
	<g>
		<path d="M615 306 a14 14 90 0 1 14 14 V331 h-134 V320 a14 14 90 0 1 14 -14" fill="#FFFFFF" stroke="#FFFFFF" stroke-width="0"/>
		<path d="M629 331 v11 a14 14 90 0 1 -14 14 H509 a14 14 90 0 1 -14 -14 V331 H134" fill="#FFFFFF" stroke="#FFFFFF" stroke-width="0"/>
		<rect x="495" y="306" width="134" height="50" fill="none" rx="14" stroke="#000000" stroke-width="2"/>
		<line x1="495" y1="331" x2="629" y2="331" stroke="#000000" stroke-width="1"/>
		<text x="502" y="323.75" fill="#000000" font-family="Verdana" font-size="12">ACTIVITE_SOCIALE</text>
	</g>
	<text x="567" y="229" fill="#000000" font-family="Verdana" font-size="12">0,N</text>
	<text x="567" y="381" fill="#000000" font-family="Verdana" font-size="12">0,N</text>
</g>

<!-- Association ATTRIBUTION_TRANSPORT -->
<g>
	<line x1="760" y1="331" x2="982" y2="331" stroke="#000000" stroke-width="2"/>
	<line x1="1167" y1="331" x2="982" y2="331" stroke="#000000" stroke-width="2"/>
	<g>
		<path d="M1059 297 a14 14 90 0 1 14 14 V322 h-182 V311 a14 14 90 0 1 14 -14" fill="#FFFFFF" stroke="#FFFFFF" stroke-width="0"/>
		<path d="M1073 322 v29 a14 14 90 0 1 -14 14 H905 a14 14 90 0 1 -14 -14 V322 H182" fill="#FFFFFF" stroke="#FFFFFF" stroke-width="0"/>
		<rect x="891" y="297" width="182" height="68" fill="none" rx="14" stroke="#000000" stroke-width="2"/>
		<line x1="891" y1="322" x2="1073" y2="322" stroke="#000000" stroke-width="1"/>
		<text x="899" y="314.75" fill="#000000" font-family="Verdana" font-size="12">ATTRIBUTION_TRANSPORT</text>
		<text x="898" y="339.8" fill="#000000" font-family="Verdana" font-size="12">date</text>
		<text x="898" y="356.8" fill="#000000" font-family="Verdana" font-size="12">heure</text>
	</g>
	<text x="864" y="323" fill="#000000" font-family="Verdana" font-size="12">0,1</text>
	<text x="1078" y="348" fill="#000000" font-family="Verdana" font-size="12">0,N</text>
</g>

<!-- Association DF1 -->
<g>
	<line x1="1354" y1="457" x2="1354" y2="331" stroke="#000000" stroke-width="2"/>
	<line x1="1543" y1="187" x2="1354" y2="331" stroke="#000000" stroke-width="2"/>
	<g>
		<circle cx="1354" cy="331" r="16" stroke="#000000" stroke-width="2" fill="#FFFFFF"/>
		<text x="1345" y="335" fill="#000000" font-family="Verdana" font-size="12">DF</text>
	</g>
	<text x="1359" y="415" fill="#000000" font-family="Verdana" font-size="12">1,1</text>
	<text x="1462" y="225.87" fill="#000000" font-family="Verdana" font-size="12">0,N</text>
</g>

<!-- Association DF2 -->
<g>
	<line x1="1543" y1="187" x2="1543" y2="331" stroke="#000000" stroke-width="2"/>
	<line x1="1543" y1="457" x2="1543" y2="331" stroke="#000000" stroke-width="2"/>
	<g>
		<circle cx="1543" cy="331" r="16" stroke="#000000" stroke-width="2" fill="#FFFFFF"/>
		<text x="1534" y="335" fill="#000000" font-family="Verdana" font-size="12">DF</text>
	</g>
	<text x="1548" y="246" fill="#000000" font-family="Verdana" font-size="12">1,1</text>
	<text x="1548" y="407" fill="#000000" font-family="Verdana" font-size="12">1,N</text>
</g>

<!-- Association DF3 -->
<g>
	<line x1="562" y1="457" x2="342" y2="457" stroke="#000000" stroke-width="2"/>
	<line x1="111" y1="457" x2="342" y2="457" stroke="#000000" stroke-width="2"/>
	<g>
		<circle cx="342" cy="457" r="16" stroke="#000000" stroke-width="2" fill="#FFFFFF"/>
		<text x="333" y="461" fill="#000000" font-family="Verdana" font-size="12">DF</text>
	</g>
	<text x="491" y="474" fill="#000000" font-family="Verdana" font-size="12">1,1</text>
	<text x="159" y="474" fill="#000000" font-family="Verdana" font-size="12">1,N</text>
</g>

<!-- Association CONFERENCE -->
<g>
	<line x1="562" y1="457" x2="760" y2="457" stroke="#000000" stroke-width="2"/>
	<line x1="760" y1="331" x2="760" y2="457" stroke="#000000" stroke-width="2"/>
	<g>
		<path d="M795 432 a14 14 90 0 1 14 14 V457 h-98 V446 a14 14 90 0 1 14 -14" fill="#FFFFFF" stroke="#FFFFFF" stroke-width="0"/>
		<path d="M809 457 v11 a14 14 90 0 1 -14 14 H725 a14 14 90 0 1 -14 -14 V457 H98" fill="#FFFFFF" stroke="#FFFFFF" stroke-width="0"/>
		<rect x="711" y="432" width="98" height="50" fill="none" rx="14" stroke="#000000" stroke-width="2"/>
		<line x1="711" y1="457" x2="809" y2="457" stroke="#000000" stroke-width="1"/>
		<text x="719" y="449.75" fill="#000000" font-family="Verdana" font-size="12">CONFERENCE</text>
	</g>
	<text x="612" y="474" fill="#000000" font-family="Verdana" font-size="12">1,N</text>
	<text x="733" y="390" fill="#000000" font-family="Verdana" font-size="12">1,N</text>
</g>

<!-- Association ATTRIBUTION_CHAMBRE -->
<g>
	<line x1="760" y1="331" x2="982" y2="457" stroke="#000000" stroke-width="2"/>
	<line x1="1167" y1="457" x2="982" y2="457" stroke="#000000" stroke-width="2"/>
	<g>
		<path d="M1052 423 a14 14 90 0 1 14 14 V448 h-168 V437 a14 14 90 0 1 14 -14" fill="#FFFFFF" stroke="#FFFFFF" stroke-width="0"/>
		<path d="M1066 448 v29 a14 14 90 0 1 -14 14 H912 a14 14 90 0 1 -14 -14 V448 H168" fill="#FFFFFF" stroke="#FFFFFF" stroke-width="0"/>
		<rect x="898" y="423" width="168" height="68" fill="none" rx="14" stroke="#000000" stroke-width="2"/>
		<line x1="898" y1="448" x2="1066" y2="448" stroke="#000000" stroke-width="1"/>
		<text x="906" y="440.75" fill="#000000" font-family="Verdana" font-size="12">ATTRIBUTION_CHAMBRE</text>
		<text x="905" y="465.8" fill="#000000" font-family="Verdana" font-size="12">date_Debut</text>
		<text x="905" y="482.8" fill="#000000" font-family="Verdana" font-size="12">date_Fin</text>
	</g>
	<text x="812.41" y="390" fill="#000000" font-family="Verdana" font-size="12">0,1</text>
	<text x="1092" y="474" fill="#000000" font-family="Verdana" font-size="12">0,N</text>
</g>

<!-- Association EST_RESPONSABLE -->
<g>
	<line x1="342" y1="566" x2="111" y2="566" stroke="#000000" stroke-width="2"/>
	<line x1="111" y1="457" x2="111" y2="566" stroke="#000000" stroke-width="2"/>
	<g>
		<path d="M165 541 a14 14 90 0 1 14 14 V566 h-136 V555 a14 14 90 0 1 14 -14" fill="#FFFFFF" stroke="#FFFFFF" stroke-width="0"/>
		<path d="M179 566 v11 a14 14 90 0 1 -14 14 H57 a14 14 90 0 1 -14 -14 V566 H136" fill="#FFFFFF" stroke="#FFFFFF" stroke-width="0"/>
		<rect x="43" y="541" width="136" height="50" fill="none" rx="14" stroke="#000000" stroke-width="2"/>
		<line x1="43" y1="566" x2="179" y2="566" stroke="#000000" stroke-width="1"/>
		<text x="51" y="558.75" fill="#000000" font-family="Verdana" font-size="12">EST_RESPONSABLE</text>
	</g>
	<text x="260" y="583" fill="#000000" font-family="Verdana" font-size="12">0,N</text>
	<text x="116" y="508" fill="#000000" font-family="Verdana" font-size="12">1,1</text>
</g>

<!-- Association DF4 -->
<g>
	<line x1="760" y1="566" x2="562" y2="566" stroke="#000000" stroke-width="2"/>
	<line x1="562" y1="457" x2="562" y2="566" stroke="#000000" stroke-width="2"/>
	<g>
		<circle cx="562" cy="566" r="16" stroke="#000000" stroke-width="2" fill="#FFFFFF"/>
		<text x="553" y="570" fill="#000000" font-family="Verdana" font-size="12">DF</text>
	</g>
	<text x="696" y="583" fill="#000000" font-family="Verdana" font-size="12">1,N</text>
	<text x="567" y="542" fill="#000000" font-family="Verdana" font-size="12">1,1</text>
</g>

<!-- Entity INSCRIPTION_ETUDIANT -->
<g>
	<g>
		<rect x="29" y="9" width="164" height="25" fill="#FFFFFF" stroke="none" stroke-width="0" opacity="1"/>
		<rect x="29" y="34" width="164" height="43" fill="#FFFFFF" stroke="none" stroke-width="0" opacity="1"/>
		<rect x="29" y="9" width="164" height="68" fill="none" stroke="#000000" stroke-width="2" opacity="1"/>
		<line x1="29" y1="34" x2="193" y2="34" stroke="#000000" stroke-width="1"/>
	</g>
	<text x="34" y="26.75" fill="#000000" font-family="Verdana" font-size="12">INSCRIPTION_ETUDIANT</text>
	<text x="34" y="51.8" fill="#000000" font-family="Verdana" font-size="12">programme_Etude</text>
	<text x="34" y="68.8" fill="#000000" font-family="Verdana" font-size="12">universite</text>
</g>

<!-- Entity CIP_MATRICULE -->
<g>
	<g>
		<rect x="705" y="9" width="110" height="25" fill="#FFFFFF" stroke="none" stroke-width="0" opacity="1"/>
		<rect x="705" y="34" width="110" height="43" fill="#FFFFFF" stroke="none" stroke-width="0" opacity="1"/>
		<rect x="705" y="9" width="110" height="68" fill="none" stroke="#000000" stroke-width="2" opacity="1"/>
		<line x1="705" y1="34" x2="815" y2="34" stroke="#000000" stroke-width="1"/>
	</g>
	<text x="710" y="26.75" fill="#000000" font-family="Verdana" font-size="12">CIP_MATRICULE</text>
	<text x="710" y="51.8" fill="#000000" font-family="Verdana" font-size="12">cip</text>
	<line x1="710" y1="54" x2="728" y2="54" stroke="#000000" stroke-width="1"/>
	<text x="710" y="68.8" fill="#000000" font-family="Verdana" font-size="12">matricule</text>
</g>

<!-- Entity PARTICIPATION_NOURRITURE -->
<g>
	<g>
		<rect x="1069" y="9" width="196" height="25" fill="#FFFFFF" stroke="none" stroke-width="0" opacity="1"/>
		<rect x="1069" y="34" width="196" height="43" fill="#FFFFFF" stroke="none" stroke-width="0" opacity="1"/>
		<rect x="1069" y="9" width="196" height="68" fill="none" stroke="#000000" stroke-width="2" opacity="1"/>
		<line x1="1069" y1="34" x2="1265" y2="34" stroke="#000000" stroke-width="1"/>
	</g>
	<text x="1074" y="26.75" fill="#000000" font-family="Verdana" font-size="12">PARTICIPATION_NOURRITURE</text>
	<text x="1074" y="51.8" fill="#000000" font-family="Verdana" font-size="12">date</text>
	<line x1="1074" y1="54" x2="1102" y2="54" stroke="#000000" stroke-width="1"/>
	<text x="1074" y="68.8" fill="#000000" font-family="Verdana" font-size="12">moment_Nourriture</text>
</g>

<!-- Entity INTOLERANCE -->
<g>
	<g>
		<rect x="1297" y="18" width="114" height="25" fill="#FFFFFF" stroke="none" stroke-width="0" opacity="1"/>
		<rect x="1297" y="43" width="114" height="25" fill="#FFFFFF" stroke="none" stroke-width="0" opacity="1"/>
		<rect x="1297" y="18" width="114" height="50" fill="none" stroke="#000000" stroke-width="2" opacity="1"/>
		<line x1="1297" y1="43" x2="1411" y2="43" stroke="#000000" stroke-width="1"/>
	</g>
	<text x="1310" y="35.75" fill="#000000" font-family="Verdana" font-size="12">INTOLERANCE</text>
	<text x="1302" y="60.8" fill="#000000" font-family="Verdana" font-size="12">nom_Intolerance</text>
	<line x1="1302" y1="63" x2="1406" y2="63" stroke="#000000" stroke-width="1"/>
</g>

<!-- Entity INSCRIPTION_PROFESSIONNEL -->
<g>
	<g>
		<rect x="9" y="153" width="204" height="25" fill="#FFFFFF" stroke="none" stroke-width="0" opacity="1"/>
		<rect x="9" y="178" width="204" height="43" fill="#FFFFFF" stroke="none" stroke-width="0" opacity="1"/>
		<rect x="9" y="153" width="204" height="68" fill="none" stroke="#000000" stroke-width="2" opacity="1"/>
		<line x1="9" y1="178" x2="213" y2="178" stroke="#000000" stroke-width="1"/>
	</g>
	<text x="14" y="170.75" fill="#000000" font-family="Verdana" font-size="12">INSCRIPTION_PROFESSIONNEL</text>
	<text x="14" y="195.8" fill="#000000" font-family="Verdana" font-size="12">domaine</text>
	<text x="14" y="212.8" fill="#000000" font-family="Verdana" font-size="12">poste</text>
</g>

<!-- Entity INSCRIPTION_PARTICIPANT -->
<g>
	<g>
		<rect x="471" y="162" width="182" height="25" fill="#FFFFFF" stroke="none" stroke-width="0" opacity="1"/>
		<rect x="471" y="187" width="182" height="25" fill="#FFFFFF" stroke="none" stroke-width="0" opacity="1"/>
		<rect x="471" y="162" width="182" height="50" fill="none" stroke="#000000" stroke-width="2" opacity="1"/>
		<line x1="471" y1="187" x2="653" y2="187" stroke="#000000" stroke-width="1"/>
	</g>
	<text x="476" y="179.75" fill="#000000" font-family="Verdana" font-size="12">INSCRIPTION_PARTICIPANT</text>
	<text x="476" y="204.8" fill="#000000" font-family="Verdana" font-size="12">dernier_Diplome</text>
</g>

<!-- Entity INSCRIPTION -->
<g>
	<g>
		<rect x="906" y="102" width="152" height="25" fill="#FFFFFF" stroke="none" stroke-width="0" opacity="1"/>
		<rect x="906" y="127" width="152" height="145" fill="#FFFFFF" stroke="none" stroke-width="0" opacity="1"/>
		<rect x="906" y="102" width="152" height="170" fill="none" stroke="#000000" stroke-width="2" opacity="1"/>
		<line x1="906" y1="127" x2="1058" y2="127" stroke="#000000" stroke-width="1"/>
	</g>
	<text x="941" y="119.75" fill="#000000" font-family="Verdana" font-size="12">INSCRIPTION</text>
	<text x="911" y="144.8" fill="#000000" font-family="Verdana" font-size="12">id_Inscription</text>
	<line x1="911" y1="147" x2="994" y2="147" stroke="#000000" stroke-width="1"/>
	<text x="911" y="161.8" fill="#000000" font-family="Verdana" font-size="12">nom</text>
	<text x="911" y="178.8" fill="#000000" font-family="Verdana" font-size="12">prenom</text>
	<text x="911" y="195.8" fill="#000000" font-family="Verdana" font-size="12">courriel</text>
	<text x="911" y="212.8" fill="#000000" font-family="Verdana" font-size="12">preference_Alimentaire</text>
	<text x="911" y="229.8" fill="#000000" font-family="Verdana" font-size="12">passe_STS</text>
	<text x="911" y="246.8" fill="#000000" font-family="Verdana" font-size="12">commentaire</text>
	<text x="911" y="263.8" fill="#000000" font-family="Verdana" font-size="12">date</text>
</g>

<!-- Entity NOURRITURE -->
<g>
	<g>
		<rect x="1489" y="145" width="108" height="25" fill="#FFFFFF" stroke="none" stroke-width="0" opacity="1"/>
		<rect x="1489" y="170" width="108" height="59" fill="#FFFFFF" stroke="none" stroke-width="0" opacity="1"/>
		<rect x="1489" y="145" width="108" height="84" fill="none" stroke="#000000" stroke-width="2" opacity="1"/>
		<line x1="1489" y1="170" x2="1597" y2="170" stroke="#000000" stroke-width="1"/>
	</g>
	<text x="1502" y="162.75" fill="#000000" font-family="Verdana" font-size="12">NOURRITURE</text>
	<text x="1494" y="187.8" fill="#000000" font-family="Verdana" font-size="12">id_Nourriture</text>
	<line x1="1494" y1="190" x2="1575" y2="190" stroke="#000000" stroke-width="1"/>
	<text x="1494" y="204.8" fill="#000000" font-family="Verdana" font-size="12">nom_Nourriture</text>
	<text x="1494" y="221.8" fill="#000000" font-family="Verdana" font-size="12">type_Nourriture</text>
</g>

<!-- Entity EVENEMENT -->
<g>
	<g>
		<rect x="245" y="246" width="194" height="25" fill="#FFFFFF" stroke="none" stroke-width="0" opacity="1"/>
		<rect x="245" y="271" width="194" height="145" fill="#FFFFFF" stroke="none" stroke-width="0" opacity="1"/>
		<rect x="245" y="246" width="194" height="170" fill="none" stroke="#000000" stroke-width="2" opacity="1"/>
		<line x1="245" y1="271" x2="439" y2="271" stroke="#000000" stroke-width="1"/>
	</g>
	<text x="305" y="263.75" fill="#000000" font-family="Verdana" font-size="12">EVENEMENT</text>
	<text x="250" y="288.8" fill="#000000" font-family="Verdana" font-size="12">nom_Evenement</text>
	<line x1="250" y1="291" x2="353" y2="291" stroke="#000000" stroke-width="1"/>
	<text x="250" y="305.8" fill="#000000" font-family="Verdana" font-size="12">annee</text>
	<text x="250" y="322.8" fill="#000000" font-family="Verdana" font-size="12">date_Debut</text>
	<text x="250" y="339.8" fill="#000000" font-family="Verdana" font-size="12">date_Fin</text>
	<text x="250" y="356.8" fill="#000000" font-family="Verdana" font-size="12">heure_Debut_Min</text>
	<text x="250" y="373.8" fill="#000000" font-family="Verdana" font-size="12">heure_Fin_Max</text>
	<text x="250" y="390.8" fill="#000000" font-family="Verdana" font-size="12">prix_Inscription_Etudiant</text>
	<text x="250" y="407.8" fill="#000000" font-family="Verdana" font-size="12">prix_Inscription_Professionnel</text>
</g>

<!-- Entity INSCRIPTION_CONFERENCIER -->
<g>
	<g>
		<rect x="661" y="289" width="198" height="25" fill="#FFFFFF" stroke="none" stroke-width="0" opacity="1"/>
		<rect x="661" y="314" width="198" height="59" fill="#FFFFFF" stroke="none" stroke-width="0" opacity="1"/>
		<rect x="661" y="289" width="198" height="84" fill="none" stroke="#000000" stroke-width="2" opacity="1"/>
		<line x1="661" y1="314" x2="859" y2="314" stroke="#000000" stroke-width="1"/>
	</g>
	<text x="667" y="306.75" fill="#000000" font-family="Verdana" font-size="12">INSCRIPTION_CONFERENCIER</text>
	<text x="666" y="331.8" fill="#000000" font-family="Verdana" font-size="12">date_Arrivee</text>
	<text x="666" y="348.8" fill="#000000" font-family="Verdana" font-size="12">date_Depart</text>
	<text x="666" y="365.8" fill="#000000" font-family="Verdana" font-size="12">nb_Personnes</text>
</g>

<!-- Entity TRANSPORTEUR -->
<g>
	<g>
		<rect x="1105" y="289" width="124" height="25" fill="#FFFFFF" stroke="none" stroke-width="0" opacity="1"/>
		<rect x="1105" y="314" width="124" height="59" fill="#FFFFFF" stroke="none" stroke-width="0" opacity="1"/>
		<rect x="1105" y="289" width="124" height="84" fill="none" stroke="#000000" stroke-width="2" opacity="1"/>
		<line x1="1105" y1="314" x2="1229" y2="314" stroke="#000000" stroke-width="1"/>
	</g>
	<text x="1118" y="306.75" fill="#000000" font-family="Verdana" font-size="12">TRANSPORTEUR</text>
	<text x="1110" y="331.8" fill="#000000" font-family="Verdana" font-size="12">nom_Transporteur</text>
	<line x1="1110" y1="334" x2="1223" y2="334" stroke="#000000" stroke-width="1"/>
	<text x="1110" y="348.8" fill="#000000" font-family="Verdana" font-size="12">no_Tel</text>
	<text x="1110" y="365.8" fill="#000000" font-family="Verdana" font-size="12">courriel</text>
</g>

<!-- Entity THEME -->
<g>
	<g>
		<rect x="68" y="423" width="86" height="25" fill="#FFFFFF" stroke="none" stroke-width="0" opacity="1"/>
		<rect x="68" y="448" width="86" height="43" fill="#FFFFFF" stroke="none" stroke-width="0" opacity="1"/>
		<rect x="68" y="423" width="86" height="68" fill="none" stroke="#000000" stroke-width="2" opacity="1"/>
		<line x1="68" y1="448" x2="154" y2="448" stroke="#000000" stroke-width="1"/>
	</g>
	<text x="90" y="440.75" fill="#000000" font-family="Verdana" font-size="12">THEME</text>
	<text x="73" y="465.8" fill="#000000" font-family="Verdana" font-size="12">nom_Theme</text>
	<line x1="73" y1="468" x2="149" y2="468" stroke="#000000" stroke-width="1"/>
	<text x="73" y="482.8" fill="#000000" font-family="Verdana" font-size="12">description</text>
</g>

<!-- Entity ACTIVITE -->
<g>
	<g>
		<rect x="517" y="389" width="90" height="25" fill="#FFFFFF" stroke="none" stroke-width="0" opacity="1"/>
		<rect x="517" y="414" width="90" height="111" fill="#FFFFFF" stroke="none" stroke-width="0" opacity="1"/>
		<rect x="517" y="389" width="90" height="136" fill="none" stroke="#000000" stroke-width="2" opacity="1"/>
		<line x1="517" y1="414" x2="607" y2="414" stroke="#000000" stroke-width="1"/>
	</g>
	<text x="533" y="406.75" fill="#000000" font-family="Verdana" font-size="12">ACTIVITE</text>
	<text x="522" y="431.8" fill="#000000" font-family="Verdana" font-size="12">nom_Activite</text>
	<line x1="522" y1="434" x2="602" y2="434" stroke="#000000" stroke-width="1"/>
	<text x="522" y="448.8" fill="#000000" font-family="Verdana" font-size="12">description</text>
	<text x="522" y="465.8" fill="#000000" font-family="Verdana" font-size="12">type_Activite</text>
	<text x="522" y="482.8" fill="#000000" font-family="Verdana" font-size="12">date</text>
	<text x="522" y="499.8" fill="#000000" font-family="Verdana" font-size="12">heure_Debut</text>
	<text x="522" y="516.8" fill="#000000" font-family="Verdana" font-size="12">duree</text>
</g>

<!-- Entity HOTEL -->
<g>
	<g>
		<rect x="1119" y="398" width="96" height="25" fill="#FFFFFF" stroke="none" stroke-width="0" opacity="1"/>
		<rect x="1119" y="423" width="96" height="93" fill="#FFFFFF" stroke="none" stroke-width="0" opacity="1"/>
		<rect x="1119" y="398" width="96" height="118" fill="none" stroke="#000000" stroke-width="2" opacity="1"/>
		<line x1="1119" y1="423" x2="1215" y2="423" stroke="#000000" stroke-width="1"/>
	</g>
	<text x="1147" y="415.75" fill="#000000" font-family="Verdana" font-size="12">HOTEL</text>
	<text x="1124" y="440.8" fill="#000000" font-family="Verdana" font-size="12">nom_Hotel</text>
	<line x1="1124" y1="443" x2="1191" y2="443" stroke="#000000" stroke-width="1"/>
	<text x="1124" y="457.8" fill="#000000" font-family="Verdana" font-size="12">no_Tel</text>
	<text x="1124" y="474.8" fill="#000000" font-family="Verdana" font-size="12">courriel</text>
	<text x="1124" y="491.8" fill="#000000" font-family="Verdana" font-size="12">adresse</text>
	<text x="1124" y="508.8" fill="#000000" font-family="Verdana" font-size="12">nb_Chambres</text>
</g>

<!-- Entity NOURRITURE_DU_JOUR -->
<g>
	<g>
		<rect x="1275" y="423" width="158" height="25" fill="#FFFFFF" stroke="none" stroke-width="0" opacity="1"/>
		<rect x="1275" y="448" width="158" height="43" fill="#FFFFFF" stroke="none" stroke-width="0" opacity="1"/>
		<rect x="1275" y="423" width="158" height="68" fill="none" stroke="#000000" stroke-width="2" opacity="1"/>
		<line x1="1275" y1="448" x2="1433" y2="448" stroke="#000000" stroke-width="1"/>
	</g>
	<text x="1281" y="440.75" fill="#000000" font-family="Verdana" font-size="12">NOURRITURE_DU_JOUR</text>
	<text x="1280" y="465.8" fill="#000000" font-family="Verdana" font-size="12">date</text>
	<line x1="1280" y1="468" x2="1308" y2="468" stroke="#000000" stroke-width="1"/>
	<text x="1280" y="482.8" fill="#000000" font-family="Verdana" font-size="12">moment_Nourriture</text>
</g>

<!-- Entity TRAITEUR -->
<g>
	<g>
		<rect x="1496" y="415" width="94" height="25" fill="#FFFFFF" stroke="none" stroke-width="0" opacity="1"/>
		<rect x="1496" y="440" width="94" height="59" fill="#FFFFFF" stroke="none" stroke-width="0" opacity="1"/>
		<rect x="1496" y="415" width="94" height="84" fill="none" stroke="#000000" stroke-width="2" opacity="1"/>
		<line x1="1496" y1="440" x2="1590" y2="440" stroke="#000000" stroke-width="1"/>
	</g>
	<text x="1512" y="432.75" fill="#000000" font-family="Verdana" font-size="12">TRAITEUR</text>
	<text x="1501" y="457.8" fill="#000000" font-family="Verdana" font-size="12">nom_Traiteur</text>
	<line x1="1501" y1="460" x2="1584" y2="460" stroke="#000000" stroke-width="1"/>
	<text x="1501" y="474.8" fill="#000000" font-family="Verdana" font-size="12">no_Tel</text>
	<text x="1501" y="491.8" fill="#000000" font-family="Verdana" font-size="12">courriel</text>
</g>

<!-- Entity ORGANISATEUR -->
<g>
	<g>
		<rect x="287" y="515" width="110" height="25" fill="#FFFFFF" stroke="none" stroke-width="0" opacity="1"/>
		<rect x="287" y="540" width="110" height="77" fill="#FFFFFF" stroke="none" stroke-width="0" opacity="1"/>
		<rect x="287" y="515" width="110" height="102" fill="none" stroke="#000000" stroke-width="2" opacity="1"/>
		<line x1="287" y1="540" x2="397" y2="540" stroke="#000000" stroke-width="1"/>
	</g>
	<text x="293" y="532.75" fill="#000000" font-family="Verdana" font-size="12">ORGANISATEUR</text>
	<text x="292" y="557.8" fill="#000000" font-family="Verdana" font-size="12">id_Organisateur</text>
	<line x1="292" y1="560" x2="390" y2="560" stroke="#000000" stroke-width="1"/>
	<text x="292" y="574.8" fill="#000000" font-family="Verdana" font-size="12">nom</text>
	<text x="292" y="591.8" fill="#000000" font-family="Verdana" font-size="12">prenom</text>
	<text x="292" y="608.8" fill="#000000" font-family="Verdana" font-size="12">domaine</text>
</g>

<!-- Entity ENDROIT -->
<g>
	<g>
		<rect x="723" y="541" width="74" height="25" fill="#FFFFFF" stroke="none" stroke-width="0" opacity="1"/>
		<rect x="723" y="566" width="74" height="25" fill="#FFFFFF" stroke="none" stroke-width="0" opacity="1"/>
		<rect x="723" y="541" width="74" height="50" fill="none" stroke="#000000" stroke-width="2" opacity="1"/>
		<line x1="723" y1="566" x2="797" y2="566" stroke="#000000" stroke-width="1"/>
	</g>
	<text x="732" y="558.75" fill="#000000" font-family="Verdana" font-size="12">ENDROIT</text>
	<text x="728" y="583.8" fill="#000000" font-family="Verdana" font-size="12">id_Endroit</text>
	<line x1="728" y1="586" x2="791" y2="586" stroke="#000000" stroke-width="1"/>
</g>

<!-- Entity ENDROIT_INTERNE -->
<g>
	<g>
		<rect x="917" y="524" width="130" height="25" fill="#FFFFFF" stroke="none" stroke-width="0" opacity="1"/>
		<rect x="917" y="549" width="130" height="59" fill="#FFFFFF" stroke="none" stroke-width="0" opacity="1"/>
		<rect x="917" y="524" width="130" height="84" fill="none" stroke="#000000" stroke-width="2" opacity="1"/>
		<line x1="917" y1="549" x2="1047" y2="549" stroke="#000000" stroke-width="1"/>
	</g>
	<text x="923" y="541.75" fill="#000000" font-family="Verdana" font-size="12">ENDROIT_INTERNE</text>
	<text x="922" y="566.8" fill="#000000" font-family="Verdana" font-size="12">id_Endroit</text>
	<text x="922" y="583.8" fill="#000000" font-family="Verdana" font-size="12">numero_Salle</text>
	<text x="922" y="600.8" fill="#000000" font-family="Verdana" font-size="12">nb_Places</text>
</g>

<!-- Entity ENDROIT_VIRTUEL -->
<g>
	<g>
		<rect x="498" y="641" width="128" height="25" fill="#FFFFFF" stroke="none" stroke-width="0" opacity="1"/>
		<rect x="498" y="666" width="128" height="43" fill="#FFFFFF" stroke="none" stroke-width="0" opacity="1"/>
		<rect x="498" y="641" width="128" height="68" fill="none" stroke="#000000" stroke-width="2" opacity="1"/>
		<line x1="498" y1="666" x2="626" y2="666" stroke="#000000" stroke-width="1"/>
	</g>
	<text x="504" y="658.75" fill="#000000" font-family="Verdana" font-size="12">ENDROIT_VIRTUEL</text>
	<text x="503" y="683.8" fill="#000000" font-family="Verdana" font-size="12">id_Endroit</text>
	<text x="503" y="700.8" fill="#000000" font-family="Verdana" font-size="12">lien</text>
</g>

<!-- Entity ENDROIT_EXTERNE -->
<g>
	<g>
		<rect x="917" y="633" width="130" height="25" fill="#FFFFFF" stroke="none" stroke-width="0" opacity="1"/>
		<rect x="917" y="658" width="130" height="59" fill="#FFFFFF" stroke="none" stroke-width="0" opacity="1"/>
		<rect x="917" y="633" width="130" height="84" fill="none" stroke="#000000" stroke-width="2" opacity="1"/>
		<line x1="917" y1="658" x2="1047" y2="658" stroke="#000000" stroke-width="1"/>
	</g>
	<text x="922" y="650.75" fill="#000000" font-family="Verdana" font-size="12">ENDROIT_EXTERNE</text>
	<text x="922" y="675.8" fill="#000000" font-family="Verdana" font-size="12">id_Endroit</text>
	<text x="922" y="692.8" fill="#000000" font-family="Verdana" font-size="12">adresse</text>
	<text x="922" y="709.8" fill="#000000" font-family="Verdana" font-size="12">nb_Places</text>
</g>
</svg>